HIERARCHY
ROOT Hips
{
	OFFSET 0.000000 100.481300 0.000000
	CHANNELS 6 Xposition Yposition Zposition Xrotation Yrotation Zrotation 
	JOINT Spine
	{
		OFFSET -0.279200 12.230698 -2.892100
		CHANNELS 3 Xrotation Yrotation Zrotation
		JOINT Spine1
		{
			OFFSET -0.232667 10.192268 -1.242267
			CHANNELS 3 Xrotation Yrotation Zrotation
			JOINT Spine1_split
			{
				OFFSET -0.232667 10.192268 -1.242267
				CHANNELS 3 Xrotation Yrotation Zrotation
				JOINT Spine2
				{
					OFFSET -0.232667 10.192268 -1.242267
					CHANNELS 3 Xrotation Yrotation Zrotation
					JOINT Neck
					{
						OFFSET -0.418800 17.814194 8.416900
						CHANNELS 3 Xrotation Yrotation Zrotation
						JOINT Head
						{
							OFFSET 0.000000 7.031097 3.806800
							CHANNELS 3 Xrotation Yrotation Zrotation
							JOINT HeadTop_End
							{
								OFFSET 0.000000 24.646606 12.978600
								CHANNELS 3 Xrotation Yrotation Zrotation
								End Site
								{
									OFFSET 0.000000 0.000000 0.000000
								}
							}
						}
					}
					JOINT LeftShoulder
					{
						OFFSET 8.476499 7.247704 -3.868750
						CHANNELS 3 Xrotation Yrotation Zrotation
						JOINT LeftShoulder_split
						{
							OFFSET 8.476499 7.247704 -3.868750
							CHANNELS 3 Xrotation Yrotation Zrotation
							JOINT LeftArm
							{
								OFFSET 9.308998 -2.777710 0.208600
								CHANNELS 3 Xrotation Yrotation Zrotation
								JOINT LeftForeArm
								{
									OFFSET 29.972298 0.000000 0.000000
									CHANNELS 3 Xrotation Yrotation Zrotation
									JOINT LeftHand
									{
										OFFSET 26.026505 0.000000 0.000000
										CHANNELS 3 Xrotation Yrotation Zrotation
										JOINT LeftHandThumb1
										{
											OFFSET 12.240501 -7.147949 9.207150
											CHANNELS 3 Xrotation Yrotation Zrotation
											JOINT LeftHandThumb2
											{
												OFFSET 4.138618 -2.389435 2.389433
												CHANNELS 3 Xrotation Yrotation Zrotation
												JOINT LeftHandThumb3
												{
													OFFSET 2.726913 -1.574387 1.574386
													CHANNELS 3 Xrotation Yrotation Zrotation
													JOINT LeftHandThumb4
													{
														OFFSET 3.941010 -2.275345 2.275342
														CHANNELS 3 Xrotation Yrotation Zrotation
														End Site
														{
															OFFSET 0.000000 0.000000 0.000000
														}
													}
												}
											}
										}
										JOINT LeftHandIndex1
										{
											OFFSET 24.424698 -1.985611 5.953459
											CHANNELS 3 Xrotation Yrotation Zrotation
											JOINT LeftHandIndex2
											{
												OFFSET 6.426697 0.000000 0.000000
												CHANNELS 3 Xrotation Yrotation Zrotation
												JOINT LeftHandIndex3
												{
													OFFSET 5.337898 0.000000 0.000000
													CHANNELS 3 Xrotation Yrotation Zrotation
													JOINT LeftHandIndex4
													{
														OFFSET 4.409401 0.000000 0.000000
														CHANNELS 3 Xrotation Yrotation Zrotation
														End Site
														{
															OFFSET 0.000000 0.000000 0.000000
														}
													}
												}
											}
										}
										JOINT LeftHandMiddle1
										{
											OFFSET 23.810104 0.000000 0.000000
											CHANNELS 3 Xrotation Yrotation Zrotation
											JOINT LeftHandMiddle2
											{
												OFFSET 7.176498 0.000000 0.000000
												CHANNELS 3 Xrotation Yrotation Zrotation
												JOINT LeftHandMiddle3
												{
													OFFSET 6.774902 0.000000 0.000000
													CHANNELS 3 Xrotation Yrotation Zrotation
													JOINT LeftHandMiddle4
													{
														OFFSET 5.403328 0.000000 0.000000
														CHANNELS 3 Xrotation Yrotation Zrotation
														End Site
														{
															OFFSET 0.000000 0.000000 0.000000
														}
													}
												}
											}
										}
										JOINT LeftHandRing1
										{
											OFFSET 22.908401 -0.839279 -6.020567
											CHANNELS 3 Xrotation Yrotation Zrotation
											JOINT LeftHandRing2
											{
												OFFSET 6.337502 0.000000 0.000000
												CHANNELS 3 Xrotation Yrotation Zrotation
												JOINT LeftHandRing3
												{
													OFFSET 5.779297 0.000000 0.000000
													CHANNELS 3 Xrotation Yrotation Zrotation
													JOINT LeftHandRing4
													{
														OFFSET 4.965698 0.000000 0.000000
														CHANNELS 3 Xrotation Yrotation Zrotation
														End Site
														{
															OFFSET 0.000000 0.000000 0.000000
														}
													}
												}
											}
										}
										JOINT LeftHandPinky1
										{
											OFFSET 20.037003 -1.530319 -10.950146
											CHANNELS 3 Xrotation Yrotation Zrotation
											JOINT LeftHandPinky2
											{
												OFFSET 5.254700 0.000000 0.000000
												CHANNELS 3 Xrotation Yrotation Zrotation
												JOINT LeftHandPinky3
												{
													OFFSET 4.810204 0.000000 0.000000
													CHANNELS 3 Xrotation Yrotation Zrotation
													JOINT LeftHandPinky4
													{
														OFFSET 3.647202 0.000000 0.000000
														CHANNELS 3 Xrotation Yrotation Zrotation
														End Site
														{
															OFFSET 0.000000 0.000000 0.000000
														}
													}
												}
											}
										}
									}
								}
							}
						}
					}
					JOINT RightShoulder
					{
						OFFSET -7.570500 7.247704 -3.868750
						CHANNELS 3 Xrotation Yrotation Zrotation
						JOINT RightShoulder_split
						{
							OFFSET -7.570500 7.247704 -3.868750
							CHANNELS 3 Xrotation Yrotation Zrotation
							JOINT RightArm
							{
								OFFSET -9.308998 -2.777710 0.208500
								CHANNELS 3 Xrotation Yrotation Zrotation
								JOINT RightForeArm
								{
									OFFSET -29.972300 0.000000 0.000000
									CHANNELS 3 Xrotation Yrotation Zrotation
									JOINT RightHand
									{
										OFFSET -26.026505 0.000000 0.000000
										CHANNELS 3 Xrotation Yrotation Zrotation
										JOINT RightHandThumb1
										{
											OFFSET -12.240601 -7.148026 9.207092
											CHANNELS 3 Xrotation Yrotation Zrotation
											JOINT RightHandThumb2
											{
												OFFSET -4.138618 -2.389435 2.389433
												CHANNELS 3 Xrotation Yrotation Zrotation
												JOINT RightHandThumb3
												{
													OFFSET -2.726974 -1.574417 1.574421
													CHANNELS 3 Xrotation Yrotation Zrotation
													JOINT RightHandThumb4
													{
														OFFSET -3.941010 -2.275345 2.275343
														CHANNELS 3 Xrotation Yrotation Zrotation
														End Site
														{
															OFFSET 0.000000 0.000000 0.000000
														}
													}
												}
											}
										}
										JOINT RightHandIndex1
										{
											OFFSET -24.424698 -1.985657 5.953444
											CHANNELS 3 Xrotation Yrotation Zrotation
											JOINT RightHandIndex2
											{
												OFFSET -6.426697 0.000000 0.000000
												CHANNELS 3 Xrotation Yrotation Zrotation
												JOINT RightHandIndex3
												{
													OFFSET -5.337898 0.000000 0.000000
													CHANNELS 3 Xrotation Yrotation Zrotation
													JOINT RightHandIndex4
													{
														OFFSET -4.409401 0.000000 0.000000
														CHANNELS 3 Xrotation Yrotation Zrotation
														End Site
														{
															OFFSET 0.000000 0.000000 0.000000
														}
													}
												}
											}
										}
										JOINT RightHandMiddle1
										{
											OFFSET -23.810097 0.000000 0.000000
											CHANNELS 3 Xrotation Yrotation Zrotation
											JOINT RightHandMiddle2
											{
												OFFSET -7.176498 0.000000 0.000000
												CHANNELS 3 Xrotation Yrotation Zrotation
												JOINT RightHandMiddle3
												{
													OFFSET -6.774902 0.000000 0.000000
													CHANNELS 3 Xrotation Yrotation Zrotation
													JOINT RightHandMiddle4
													{
														OFFSET -5.403328 0.000000 0.000000
														CHANNELS 3 Xrotation Yrotation Zrotation
														End Site
														{
															OFFSET 0.000000 0.000000 0.000000
														}
													}
												}
											}
										}
										JOINT RightHandRing1
										{
											OFFSET -22.908302 -0.839325 -6.020576
											CHANNELS 3 Xrotation Yrotation Zrotation
											JOINT RightHandRing2
											{
												OFFSET -6.337502 0.000000 0.000000
												CHANNELS 3 Xrotation Yrotation Zrotation
												JOINT RightHandRing3
												{
													OFFSET -5.779297 0.000000 0.000000
													CHANNELS 3 Xrotation Yrotation Zrotation
													JOINT RightHandRing4
													{
														OFFSET -4.965698 0.000000 0.000000
														CHANNELS 3 Xrotation Yrotation Zrotation
														End Site
														{
															OFFSET 0.000000 0.000000 0.000000
														}
													}
												}
											}
										}
										JOINT RightHandPinky1
										{
											OFFSET -20.037003 -1.530334 -10.950259
											CHANNELS 3 Xrotation Yrotation Zrotation
											JOINT RightHandPinky2
											{
												OFFSET -5.254700 0.000000 0.000000
												CHANNELS 3 Xrotation Yrotation Zrotation
												JOINT RightHandPinky3
												{
													OFFSET -4.810204 0.000000 0.000000
													CHANNELS 3 Xrotation Yrotation Zrotation
													JOINT RightHandPinky4
													{
														OFFSET -3.647202 0.000000 0.000000
														CHANNELS 3 Xrotation Yrotation Zrotation
														End Site
														{
															OFFSET 0.000000 0.000000 0.000000
														}
													}
												}
											}
										}
									}
								}
							}
						}
					}
				}
			}
		}
	}
	JOINT LeftUpLeg
	{
		OFFSET 15.427100 -6.655098 0.678600
		CHANNELS 3 Xrotation Yrotation Zrotation
		JOINT LeftLeg
		{
			OFFSET 4.081073 -39.591068 13.024000
			CHANNELS 3 Xrotation Yrotation Zrotation
			JOINT LeftFoot
			{
				OFFSET -4.081074 -37.707932 -15.979700
				CHANNELS 3 Xrotation Yrotation Zrotation
				JOINT LeftToeBase
				{
					OFFSET 5.346399 -15.068900 20.645000
					CHANNELS 3 Xrotation Yrotation Zrotation
					JOINT LeftToe_End
					{
						OFFSET 2.754700 0.931300 11.300900
						CHANNELS 3 Xrotation Yrotation Zrotation
						End Site
						{
							OFFSET 0.000000 0.000000 0.000000
						}
					}
				}
			}
		}
	}
	JOINT RightUpLeg
	{
		OFFSET -15.569500 -6.655098 0.678600
		CHANNELS 3 Xrotation Yrotation Zrotation
		JOINT RightLeg
		{
			OFFSET -4.081825 -39.591045 13.023800
			CHANNELS 3 Xrotation Yrotation Zrotation
			JOINT RightFoot
			{
				OFFSET 4.081824 -37.707954 -15.979600
				CHANNELS 3 Xrotation Yrotation Zrotation
				JOINT RightToeBase
				{
					OFFSET -5.346400 -15.068900 20.645000
					CHANNELS 3 Xrotation Yrotation Zrotation
					JOINT RightToe_End
					{
						OFFSET -2.754700 0.931300 11.300900
						CHANNELS 3 Xrotation Yrotation Zrotation
						End Site
						{
							OFFSET 0.000000 0.000000 0.000000
						}
					}
				}
			}
		}
	}
}
MOTION
Frames: 4
Frame Time: 0.016667
-61.426857 16.077652 -0.582037 -58.489751 9.293381 100.790076 13.667731 -0.072627 -8.404186 16.440313 0.246667 -3.275167 0.000000 0.000000 0.000000 16.425640 0.382576 -3.359055 55.837879 6.470989 -15.932345 -15.707541 9.351476 1.833019 -0.000001 -0.000001 -0.000000 5.814963 1.516420 -4.688137 0.000000 0.000000 0.000000 -74.915250 -6.740958 -27.974771 58.640815 -0.227359 0.365226 -133.094801 1.338620 -9.402814 40.109927 -15.297196 -0.360499 5.639813 28.097930 11.338853 1.088582 40.896301 22.734020 0.000000 -0.000001 0.000002 6.882258 2.840060 -61.140411 8.248000 7.640052 -89.897884 2.146115 8.173443 -41.827747 0.000002 -0.000001 -0.000000 -2.345516 4.688877 -62.655231 8.754154 9.897089 -87.051287 1.995390 4.929282 -37.483450 -0.000001 -0.000002 -0.000001 -9.042453 10.045666 -60.766185 8.524090 9.508817 -66.893029 6.576560 9.896758 -70.385113 0.000000 0.000001 0.000000 -17.946909 14.754976 -51.485850 8.868435 8.667060 -84.811982 4.540462 8.852542 -59.152969 0.000001 -0.000001 0.000001 4.350985 9.519744 -3.915168 0.000000 0.000000 0.000000 -1.908431 -4.831212 1.339512 32.754626 33.258763 -23.829328 -6.484590 12.966947 -27.297582 -1.264354 -6.049206 -2.222015 3.622116 -28.238618 -7.467040 -1.666026 -4.024793 -2.390806 0.000000 0.000000 -0.000001 5.510553 -12.536717 32.643748 0.964236 -4.576391 40.090424 1.053059 -7.415414 38.538543 0.000001 0.000000 -0.000000 2.422435 -10.452754 50.257669 1.705361 -6.329515 40.569975 1.565842 -4.685917 43.312805 -0.000001 -0.000000 -0.000000 1.697850 -16.683517 49.417826 3.312923 -5.897100 49.275232 3.225149 -7.675917 51.715843 0.000000 0.000002 0.000001 -0.128132 -24.863962 64.179531 8.350125 -6.902198 80.012961 6.807193 -9.122684 73.762847 0.000000 0.000000 -0.000000 -33.107693 30.284161 -3.805598 63.890867 0.484874 -5.609728 -21.117167 -12.516727 5.837317 -1.295508 -0.033284 -0.027845 0.000001 0.000002 -0.000000 -53.214465 -32.438457 -23.078994 115.692381 -7.664192 0.221227 -11.779091 8.642062 22.445622 -0.001764 0.015034 -0.000106 -0.000001 -0.000000 0.000000 
-62.673477 14.113136 -0.364611 -57.940044 3.957179 103.225086 15.924217 -0.728867 -7.585031 15.237928 -0.553104 -2.719550 0.000000 0.000000 0.000000 15.233188 -0.442766 -2.765204 59.396117 3.808052 -15.534174 -14.123796 7.966004 -0.046233 -0.000000 0.000002 0.000001 5.850621 3.867371 -9.147221 0.000000 0.000000 0.000000 -79.175450 -4.790784 -29.369643 66.580746 -0.196846 0.415295 -130.528549 2.100607 -1.414895 40.109927 -15.297199 -0.360497 5.639808 28.097933 11.338845 1.088579 40.896304 22.734022 -0.000001 0.000002 0.000002 6.882256 2.840056 -61.140411 8.247996 7.640054 -89.897891 2.146115 8.173445 -41.827747 -0.000001 0.000001 -0.000001 -2.345517 4.688873 -62.655224 8.754155 9.897091 -87.051287 1.995390 4.929281 -37.483450 -0.000000 0.000000 -0.000002 -9.042456 10.045666 -60.766185 8.524085 9.508821 -66.893029 6.576556 9.896758 -70.385113 0.000000 0.000000 0.000001 -17.946909 14.754973 -51.485850 8.868441 8.667063 -84.811982 4.540459 8.852536 -59.152976 0.000001 0.000001 -0.000002 3.987309 5.771296 -5.369513 0.000000 0.000000 0.000000 0.856462 3.213913 0.708506 26.740049 31.874936 -18.503112 -6.515412 15.387228 -26.510759 -1.549555 -6.169136 -1.948575 3.754931 -28.218817 -7.731324 -1.573004 -4.021566 -2.475576 0.000000 -0.000002 0.000003 5.611890 -12.685510 32.943799 1.033059 -4.592714 40.333360 1.116618 -7.451939 38.833307 0.000002 0.000000 0.000000 2.535939 -10.495714 50.782272 1.733165 -6.345996 40.670983 1.623956 -4.738623 43.658364 -0.000000 0.000001 0.000000 1.857075 -16.770042 49.979284 3.310362 -5.941013 49.419359 3.299588 -7.755498 52.230685 -0.000001 0.000001 -0.000001 0.126680 -25.012624 64.844307 8.394872 -7.019060 80.688488 6.907582 -9.203451 74.691732 -0.000000 -0.000001 0.000000 -31.081384 25.009600 -2.636472 66.034228 4.603556 -6.186673 -26.912974 -9.605041 2.997816 -1.251888 -0.018560 -0.015391 0.000000 0.000000 -0.000000 -49.462505 -29.258645 -22.766434 116.236296 -10.099189 0.947888 -20.268545 5.669340 21.949020 -0.001748 0.016231 -0.000100 0.000001 0.000001 -0.000000 
-63.985619 13.342522 0.111813 -57.243952 -0.707210 105.071512 17.547762 -1.516453 -6.310527 13.624160 -1.732710 -2.465764 0.000000 0.000000 0.000000 13.638199 -1.655710 -2.445528 61.075511 1.954507 -14.888462 -12.574470 6.608065 -1.023412 0.000000 -0.000000 -0.000002 5.241393 7.707913 -14.772693 0.000000 0.000000 0.000000 -82.451489 -2.394243 -28.832865 71.492123 -0.210156 0.553445 -123.104447 0.006961 2.277051 40.109924 -15.297190 -0.360493 5.639814 28.097930 11.338847 1.088583 40.896301 22.734017 0.000001 0.000001 0.000001 6.882256 2.840057 -61.140411 8.248000 7.640055 -89.897891 2.146116 8.173444 -41.827747 -0.000002 -0.000001 -0.000002 -2.345518 4.688874 -62.655224 8.754152 9.897088 -87.051287 1.995398 4.929283 -37.483446 -0.000000 0.000001 0.000001 -9.042455 10.045663 -60.766185 8.524086 9.508819 -66.893029 6.576557 9.896759 -70.385113 0.000000 -0.000001 -0.000002 -17.946908 14.754971 -51.485850 8.868438 8.667066 -84.811982 4.540460 8.852544 -59.152976 -0.000000 0.000000 -0.000001 4.001946 5.115520 -8.837090 0.000000 0.000000 0.000000 0.941024 11.676202 -0.032721 16.412181 34.300162 -10.963358 -9.500785 4.579484 -16.821540 -1.829252 -6.289130 -1.679231 3.885980 -28.199320 -7.991221 -1.480423 -4.021767 -2.560454 -0.000002 0.000000 0.000001 5.712092 -12.831490 33.221186 1.100959 -4.608027 40.554351 1.179139 -7.487877 39.104841 0.000001 -0.000002 0.000002 2.647856 -10.536388 51.279862 1.759835 -6.362487 40.753014 1.681223 -4.790373 43.979964 0.000000 -0.000001 -0.000003 2.014525 -16.852419 50.513760 3.308037 -5.984401 49.543337 3.374240 -7.833458 52.719474 0.000001 0.000001 0.000002 0.379751 -25.154248 65.481761 8.441287 -7.134619 81.335013 7.008364 -9.280741 75.588016 0.000001 0.000000 -0.000001 -26.318686 17.924342 -0.646776 66.500320 10.349962 -8.206243 -33.359812 -3.523332 -5.935527 -1.205624 -0.003120 -0.002208 -0.000000 -0.000000 0.000000 -46.789514 -24.776052 -22.432337 116.402447 -15.548190 0.717676 -24.224958 4.311434 20.102664 -0.001707 0.017350 -0.000086 0.000000 -0.000000 0.000000 
-64.957268 13.241325 0.559872 -57.079700 -4.682082 107.596455 17.500478 -1.658121 -6.976597 12.355800 -1.761863 -1.940307 0.000000 0.000000 0.000000 12.378805 -1.624618 -1.926827 59.987694 0.650068 -12.018806 -12.691763 2.856313 1.482930 0.000000 0.000000 -0.000002 3.701489 9.640392 -19.253675 0.000000 0.000000 0.000000 -85.769766 -1.001392 -27.598655 69.277974 -0.255665 0.574472 -109.058484 -7.133547 4.798817 40.109920 -15.297196 -0.360493 5.639814 28.097930 11.338845 1.088579 40.896304 22.734022 0.000001 -0.000006 -0.000001 6.882257 2.840059 -61.140411 8.247998 7.640053 -89.897884 2.146116 8.173443 -41.827740 0.000001 0.000000 -0.000000 -2.345517 4.688872 -62.655231 8.754151 9.897088 -87.051287 1.995392 4.929282 -37.483450 -0.000001 -0.000000 0.000003 -9.042454 10.045666 -60.766185 8.524083 9.508819 -66.893029 6.576555 9.896756 -70.385113 0.000000 -0.000001 0.000000 -17.946906 14.754971 -51.485850 8.868442 8.667064 -84.811982 4.540459 8.852540 -59.152976 -0.000002 -0.000001 -0.000000 3.553652 17.233479 -9.962792 0.000000 0.000000 0.000000 5.185750 5.341672 -2.433861 15.662636 31.146414 -9.027861 -12.315958 0.733327 -13.862434 -2.103278 -6.408987 -1.414494 4.016407 -28.183502 -8.246966 -1.390842 -4.017057 -2.642545 -0.000000 0.000001 0.000000 5.811205 -12.974707 33.475368 1.167863 -4.622497 40.751846 1.241188 -7.522249 39.352695 0.000001 0.000001 0.000001 2.758038 -10.575067 51.750171 1.786565 -6.378083 40.814335 1.737834 -4.841155 44.277299 -0.000001 0.000002 0.000001 2.170277 -16.931252 51.020687 3.305862 -6.027664 49.645944 3.449126 -7.909948 53.181250 -0.000002 0.000001 0.000000 0.630559 -25.288997 66.090577 8.488904 -7.248962 81.951062 7.108952 -9.354607 76.450444 -0.000000 -0.000000 0.000000 -21.036349 11.733497 -0.169200 66.856146 17.644696 -9.587836 -36.402128 3.592049 -14.809805 -1.197373 -0.000475 0.000026 -0.000001 0.000000 0.000000 -46.350794 -20.989149 -24.219753 114.662402 -17.016499 0.303464 -21.791380 4.058512 16.179829 -0.001757 0.018272 -0.000150 -0.000001 0.000000 0.000000 
